<?xml version="1.0" encoding="UTF-8" standalone="no"?>
<!-- Created with Inkscape (http://www.inkscape.org/) -->

<svg
   xmlns:dc="http://purl.org/dc/elements/1.1/"
   xmlns:cc="http://creativecommons.org/ns#"
   xmlns:rdf="http://www.w3.org/1999/02/22-rdf-syntax-ns#"
   xmlns:svg="http://www.w3.org/2000/svg"
   xmlns="http://www.w3.org/2000/svg"
   xmlns:xlink="http://www.w3.org/1999/xlink"
   xmlns:sodipodi="http://sodipodi.sourceforge.net/DTD/sodipodi-0.dtd"
   xmlns:inkscape="http://www.inkscape.org/namespaces/inkscape"
   width="971.63824"
   height="1180.7001"
   id="svg2"
   version="1.1"
   inkscape:version="0.48.2 r9819"
   sodipodi:docname="mc3-swap.svg">
  <defs
     id="defs4">
    <linearGradient
       id="linearGradient11442">
      <stop
         style="stop-color:#64b038;stop-opacity:1;"
         offset="0"
         id="stop11444" />
      <stop
         id="stop11454"
         offset="0.5"
         style="stop-color:#f8ea2d;stop-opacity:1;" />
      <stop
         id="stop11450"
         offset="1"
         style="stop-color:#d17600;stop-opacity:1;" />
    </linearGradient>
    <linearGradient
       id="linearGradient11434">
      <stop
         style="stop-color:#cce0c2;stop-opacity:1;"
         offset="0"
         id="stop11436" />
      <stop
         style="stop-color:#cce0c2;stop-opacity:0;"
         offset="1"
         id="stop11438" />
    </linearGradient>
    <linearGradient
       id="linearGradient10788">
      <stop
         style="stop-color:#2c5aa0;stop-opacity:1;"
         offset="0"
         id="stop10790" />
      <stop
         id="stop10798"
         offset="1"
         style="stop-color:#a02c2c;stop-opacity:1;" />
    </linearGradient>
    <marker
       inkscape:stockid="Arrow2Mstart"
       orient="auto"
       refY="0"
       refX="0"
       id="Arrow2Mstart"
       style="overflow:visible">
      <path
         id="path3899"
         style="font-size:12px;fill-rule:evenodd;stroke-width:0.625;stroke-linejoin:round"
         d="M 8.7185878,4.0337352 -2.2072895,0.01601326 8.7185884,-4.0017078 c -1.7454984,2.3720609 -1.7354408,5.6174519 -6e-7,8.035443 z"
         transform="scale(0.6,0.6)"
         inkscape:connector-curvature="0" />
    </marker>
    <marker
       inkscape:stockid="Arrow1Mstart"
       orient="auto"
       refY="0"
       refX="0"
       id="Arrow1Mstart"
       style="overflow:visible">
      <path
         id="path3881"
         d="M 0,0 5,-5 -12.5,0 5,5 0,0 z"
         style="fill-rule:evenodd;stroke:#000000;stroke-width:1pt;marker-start:none"
         transform="matrix(0.4,0,0,0.4,4,0)"
         inkscape:connector-curvature="0" />
    </marker>
    <marker
       inkscape:stockid="DotM"
       orient="auto"
       refY="0"
       refX="0"
       id="DotM"
       style="overflow:visible">
      <path
         id="path3940"
         d="m -2.5,-1 c 0,2.76 -2.24,5 -5,5 -2.76,0 -5,-2.24 -5,-5 0,-2.76 2.24,-5 5,-5 2.76,0 5,2.24 5,5 z"
         style="fill-rule:evenodd;stroke:#000000;stroke-width:1pt;marker-start:none;marker-end:none"
         transform="matrix(0.4,0,0,0.4,2.96,0.4)"
         inkscape:connector-curvature="0" />
    </marker>
    <marker
       inkscape:stockid="Arrow2Mend"
       orient="auto"
       refY="0"
       refX="0"
       id="Arrow2Mend"
       style="overflow:visible">
      <path
         id="path3902"
         style="font-size:12px;fill-rule:evenodd;stroke-width:0.625;stroke-linejoin:round"
         d="M 8.7185878,4.0337352 -2.2072895,0.01601326 8.7185884,-4.0017078 c -1.7454984,2.3720609 -1.7354408,5.6174519 -6e-7,8.035443 z"
         transform="scale(-0.6,-0.6)"
         inkscape:connector-curvature="0" />
    </marker>
    <linearGradient
       inkscape:collect="always"
       xlink:href="#linearGradient10788"
       id="linearGradient11201"
       gradientUnits="userSpaceOnUse"
       x1="2074.0911"
       y1="2325.8948"
       x2="2503.9089"
       y2="2325.8948" />
    <linearGradient
       inkscape:collect="always"
       xlink:href="#linearGradient10788"
       id="linearGradient11223"
       gradientUnits="userSpaceOnUse"
       x1="2074.0911"
       y1="2325.8948"
       x2="2503.9089"
       y2="2325.8948" />
  </defs>
  <sodipodi:namedview
     id="base"
     pagecolor="#ffffff"
     bordercolor="#666666"
     borderopacity="1.0"
     inkscape:pageopacity="0.0"
     inkscape:pageshadow="2"
     inkscape:zoom="0.72299202"
     inkscape:cx="312.23491"
     inkscape:cy="590.35004"
     inkscape:document-units="px"
     inkscape:current-layer="layer1"
     showgrid="false"
     showborder="true"
     inkscape:window-width="1913"
     inkscape:window-height="1385"
     inkscape:window-x="69"
     inkscape:window-y="0"
     inkscape:window-maximized="0"
     showguides="true"
     inkscape:guide-bbox="true"
     fit-margin-top="5"
     fit-margin-left="5"
     fit-margin-right="5"
     fit-margin-bottom="5" />
  <metadata
     id="metadata7">
    <rdf:RDF>
      <cc:Work
         rdf:about="">
        <dc:format>image/svg+xml</dc:format>
        <dc:type
           rdf:resource="http://purl.org/dc/dcmitype/StillImage" />
        <dc:title />
      </cc:Work>
    </rdf:RDF>
  </metadata>
  <g
     inkscape:label="Layer 1"
     inkscape:groupmode="layer"
     id="layer1"
     transform="translate(-1877.2631,-1693.9469)">
    <g
       transform="translate(1191.8086,642.45374)"
       id="g11758">
      <rect
         y="1778.1932"
         x="1203.0928"
         height="448"
         width="448"
         id="rect11760"
         style="fill:#d6eac8;fill-opacity:1;stroke:#000000;stroke-width:2;stroke-linecap:square;stroke-linejoin:miter;stroke-miterlimit:4;stroke-opacity:1;stroke-dasharray:none;stroke-dashoffset:0" />
      <g
         id="g11762"
         transform="translate(14.612855,-758.24481)">
        <path
           inkscape:connector-curvature="0"
           id="path11764"
           d="m 1518.5035,2561.2743 c 13.5544,-1.2919 22.6726,7.326 34.5883,11.659 11.4659,4.1694 26.4514,4.5059 33.811,15.5453 18.6531,27.9796 -11.136,78.1094 -27.9815,98.3239 -6.7752,8.1303 -7.8281,21.8467 -13.9908,31.0906 -13.172,19.758 -38.1841,32.0002 -47.0245,55.5744 -15.5582,41.4887 0.8814,88.5422 -15.9339,130.5804 -26.1548,65.387 -145.4053,70.0638 -195.0933,30.3134 -20.0426,-16.0341 -24.4448,-35.0023 -33.0338,-57.9063 -4.4936,-11.9828 -11.8043,-22.8955 -15.5453,-35.3655 -4.887,-16.2901 -3.8436,-34.7678 -5.0522,-51.6881 -2.6301,-36.8208 -2.7624,-67.5799 24.0952,-94.4376 26.7308,-26.7308 96.6007,0.5574 129.4145,-32.2565 12.5184,-12.5183 25.3545,-23.8466 35.3656,-38.8632 9.8828,-14.8243 11.8503,-41.3098 27.2042,-50.5222 22.7264,-13.6358 43.932,-8.892 69.1765,-12.0476 z"
           style="fill:#e2efc7;fill-opacity:1;stroke:#000000;stroke-width:1.99999988;stroke-linecap:butt;stroke-linejoin:miter;stroke-miterlimit:4;stroke-opacity:1;stroke-dasharray:none" />
        <path
           inkscape:connector-curvature="0"
           id="path11766"
           d="m 1403.857,2724.1112 c 35.7918,10.7908 36.5315,57.3163 36.5315,88.6082 0,18.3656 2.6291,39.0224 -0.3887,57.1289 -12.7551,76.5309 -108.0247,67.3804 -148.4575,20.2089 -20.9934,-24.4923 -46.1817,-136.0868 -22.152,-160.1165 14.6121,-14.612 44.1089,-8.7443 61.7925,-6.2181 23.2266,3.3181 50.3499,-5.9898 72.6742,0.3886 z"
           style="fill:#eff4c6;fill-opacity:1;stroke:#000000;stroke-width:1.99999988;stroke-linecap:butt;stroke-linejoin:miter;stroke-miterlimit:4;stroke-opacity:1;stroke-dasharray:none" />
        <path
           inkscape:connector-curvature="0"
           id="path11768"
           d="m 1314.8603,2864.4075 c 8.9872,20.3665 50.881,35.2279 70.731,23.3179 8.9152,-5.3491 14.7717,-10.6939 20.2089,-20.2089 10.716,-18.753 20.4869,-95.5893 2.3318,-109.2056 -12.5266,-9.395 -38.2425,-0.052 -53.2426,-5.0523 -10.2877,-3.4292 -20.1576,-9.12 -30.3133,-11.6589 -72.6206,-18.1552 -41.9728,57.2568 -31.8679,90.9399 5.1544,17.1813 11.0805,20.7963 22.1521,31.8679 z"
           style="fill:#fdf9c5;fill-opacity:1;stroke:#000000;stroke-width:1.99999988;stroke-linecap:butt;stroke-linejoin:miter;stroke-miterlimit:4;stroke-opacity:1;stroke-dasharray:none" />
        <path
           inkscape:connector-curvature="0"
           id="path11770"
           d="m 1348.0883,2783.9606 c 9.431,-1.65 42.2216,-13.1036 48.5791,-0.3886 8.7267,17.4534 -9.3572,30.1789 -13.9908,45.4699 -2.5698,8.4803 1.353,27.5253 -2.7204,33.2281 -3.204,4.4856 -10.8725,5.6344 -15.934,6.0238 -25.1366,1.9336 -21.5233,-8.6658 -37.3086,-22.3464 -6.1938,-5.3679 -14.0754,-5.2945 -19.4317,-12.4362 -4.6574,-6.21 -2.6806,-16.462 -0.7772,-23.1236 2.3905,-8.3669 1.3897,-17.4915 5.8295,-25.2611 4.7684,-8.3448 27.8936,-2.1485 35.7541,-1.1659 z"
           style="fill:#faeec1;fill-opacity:1;stroke:#000000;stroke-width:1.99999988;stroke-linecap:butt;stroke-linejoin:miter;stroke-miterlimit:4;stroke-opacity:1;stroke-dasharray:none" />
        <path
           inkscape:connector-curvature="0"
           id="path11772"
           d="m 1347.3111,2803.6837 c 3.9139,-4.4855 25.4742,-7.1201 29.9246,-3.0119 7.7353,7.1403 -11.1228,19.9532 -13.6021,25.0668 -1.697,3.5 1.5169,11.1299 -1.7488,13.5049 -4.358,3.1694 -14.2446,4.1189 -19.1402,1.5545 -1.6325,-0.8551 -1.4252,-3.8155 -3.109,-4.8579 -5.8729,-3.6356 -16.5721,-4.2734 -14.8652,-14.0879 1.2361,-7.1075 11.0309,-10.5404 16.7112,-13.2135 2.1535,-1.0134 3.8025,-3.6882 5.8295,-4.955 z"
           style="fill:#f6e4bd;fill-opacity:1;stroke:#000000;stroke-width:1.99999988;stroke-linecap:butt;stroke-linejoin:miter;stroke-miterlimit:4;stroke-opacity:1;stroke-dasharray:none" />
        <path
           inkscape:connector-curvature="0"
           id="path11774"
           d="m 1346.048,2814.3711 c -10.0259,3.1031 -4.4114,17.3992 5.538,12.922 3.5662,-1.6048 3.0765,-5.3407 4.8579,-8.1613 2.4646,-3.9022 4.8417,-9.6186 -2.0403,-9.6186 -4.197,0 -4.5354,5.7068 -8.3556,4.8579 z"
           style="fill:#f3dab9;fill-opacity:1;stroke:#000000;stroke-width:1.99999988;stroke-linecap:butt;stroke-linejoin:miter;stroke-miterlimit:4;stroke-opacity:1;stroke-dasharray:none" />
        <path
           inkscape:connector-curvature="0"
           id="path11776"
           d="m 1462.1519,2596.2512 c -3.8011,21.5099 -20.5235,44.3472 -10.8817,66.8448 3.1273,7.2971 9.7769,12.5052 12.8248,19.8202 3.3678,8.0827 9.0886,17.8373 18.6544,19.4316 27.8593,4.6433 34.181,-14.7494 50.1335,-30.7019 15.4028,-15.4028 30.818,-29.5421 28.3702,-54.0199 -2.6251,-26.2511 -33.8565,-23.6379 -51.6881,-27.2042 -18.3246,-3.665 -39.3342,-15.7144 -47.4131,5.8294 z"
           style="fill:#f0f4c6;fill-opacity:1;stroke:#000000;stroke-width:1.99999988;stroke-linecap:butt;stroke-linejoin:miter;stroke-miterlimit:4;stroke-opacity:1;stroke-dasharray:none" />
        <path
           inkscape:connector-curvature="0"
           id="path11778"
           d="m 1487.0243,2617.2374 c 12.042,-6.0413 26.9193,-6.9436 39.2519,-0.7773 22.2057,11.1029 -7.4934,27.091 -12.8249,34.1996 -8.2575,11.0101 -9.4859,26.1621 -27.5929,22.5407 -12.919,-2.5838 -8.5753,-55.963 1.1659,-55.963 z"
           style="fill:#fdf9c5;fill-opacity:1;stroke:#000000;stroke-width:1.99999988;stroke-linecap:butt;stroke-linejoin:miter;stroke-miterlimit:4;stroke-opacity:1;stroke-dasharray:none" />
        <path
           inkscape:connector-curvature="0"
           id="path11780"
           d="m 1492.4652,2630.8395 c -18.525,37.6281 31.3785,7.8677 16.3225,-1.1659 -1.7525,-1.0515 -5.9589,-3.433 -8.1612,-2.3318 -3.1983,1.5991 -4.8074,3.0186 -8.1613,3.4977 z"
           style="fill:#faeec1;fill-opacity:1;stroke:#000000;stroke-width:1.99999988;stroke-linecap:butt;stroke-linejoin:miter;stroke-miterlimit:4;stroke-opacity:1;stroke-dasharray:none" />
      </g>
    </g>
    <g
       id="g11647"
       transform="translate(698.52551,642.45374)">
      <rect
         style="fill:#d6eac8;fill-opacity:1;stroke:#000000;stroke-width:2;stroke-linecap:square;stroke-linejoin:miter;stroke-miterlimit:4;stroke-opacity:1;stroke-dasharray:none;stroke-dashoffset:0"
         id="rect11649"
         width="448"
         height="448"
         x="1203.0928"
         y="1778.1932" />
      <g
         transform="translate(14.612855,-758.24481)"
         id="g11651">
        <path
           style="fill:#e2efc7;fill-opacity:1;stroke:#000000;stroke-width:1.99999988;stroke-linecap:butt;stroke-linejoin:miter;stroke-miterlimit:4;stroke-opacity:1;stroke-dasharray:none"
           d="m 1518.5035,2561.2743 c 13.5544,-1.2919 22.6726,7.326 34.5883,11.659 11.4659,4.1694 26.4514,4.5059 33.811,15.5453 18.6531,27.9796 -11.136,78.1094 -27.9815,98.3239 -6.7752,8.1303 -7.8281,21.8467 -13.9908,31.0906 -13.172,19.758 -38.1841,32.0002 -47.0245,55.5744 -15.5582,41.4887 0.8814,88.5422 -15.9339,130.5804 -26.1548,65.387 -145.4053,70.0638 -195.0933,30.3134 -20.0426,-16.0341 -24.4448,-35.0023 -33.0338,-57.9063 -4.4936,-11.9828 -11.8043,-22.8955 -15.5453,-35.3655 -4.887,-16.2901 -3.8436,-34.7678 -5.0522,-51.6881 -2.6301,-36.8208 -2.7624,-67.5799 24.0952,-94.4376 26.7308,-26.7308 96.6007,0.5574 129.4145,-32.2565 12.5184,-12.5183 25.3545,-23.8466 35.3656,-38.8632 9.8828,-14.8243 11.8503,-41.3098 27.2042,-50.5222 22.7264,-13.6358 43.932,-8.892 69.1765,-12.0476 z"
           id="path11653"
           inkscape:connector-curvature="0" />
        <path
           style="fill:#eff4c6;fill-opacity:1;stroke:#000000;stroke-width:1.99999988;stroke-linecap:butt;stroke-linejoin:miter;stroke-miterlimit:4;stroke-opacity:1;stroke-dasharray:none"
           d="m 1314.8603,2864.4075 c 8.9872,20.3665 50.881,35.2279 70.731,23.3179 8.9152,-5.3491 14.7717,-10.6939 20.2089,-20.2089 10.716,-18.753 20.4869,-95.5893 2.3318,-109.2056 -12.5266,-9.395 -38.2425,-0.052 -53.2426,-5.0523 -10.2877,-3.4292 -20.1576,-9.12 -30.3133,-11.6589 -72.6206,-18.1552 -41.9728,57.2568 -31.8679,90.9399 5.1544,17.1813 11.0805,20.7963 22.1521,31.8679 z"
           id="path11655"
           inkscape:connector-curvature="0" />
        <path
           style="fill:#fdf9c5;fill-opacity:1;stroke:#000000;stroke-width:1.99999988;stroke-linecap:butt;stroke-linejoin:miter;stroke-miterlimit:4;stroke-opacity:1;stroke-dasharray:none"
           d="m 1347.3111,2803.6837 c 3.9139,-4.4855 25.4742,-7.1201 29.9246,-3.0119 7.7353,7.1403 -11.1228,19.9532 -13.6021,25.0668 -1.697,3.5 1.5169,11.1299 -1.7488,13.5049 -4.358,3.1694 -14.2446,4.1189 -19.1402,1.5545 -1.6325,-0.8551 -1.4252,-3.8155 -3.109,-4.8579 -5.8729,-3.6356 -16.5721,-4.2734 -14.8652,-14.0879 1.2361,-7.1075 11.0309,-10.5404 16.7112,-13.2135 2.1535,-1.0134 3.8025,-3.6882 5.8295,-4.955 z"
           id="path11657"
           inkscape:connector-curvature="0" />
        <path
           style="fill:#f0f4c6;fill-opacity:1;stroke:#000000;stroke-width:1.99999988;stroke-linecap:butt;stroke-linejoin:miter;stroke-miterlimit:4;stroke-opacity:1;stroke-dasharray:none"
           d="m 1487.0243,2617.2374 c 12.042,-6.0413 26.9193,-6.9436 39.2519,-0.7773 22.2057,11.1029 -7.4934,27.091 -12.8249,34.1996 -8.2575,11.0101 -9.4859,26.1621 -27.5929,22.5407 -12.919,-2.5838 -8.5753,-55.963 1.1659,-55.963 z"
           id="path11659"
           inkscape:connector-curvature="0" />
      </g>
    </g>
    <g
       transform="translate(1191.8086,-11.643311)"
       id="g11602">
      <rect
         y="1778.1932"
         x="1203.0928"
         height="448"
         width="448"
         id="rect11604"
         style="fill:#d6eac8;fill-opacity:1;stroke:#000000;stroke-width:2;stroke-linecap:square;stroke-linejoin:miter;stroke-miterlimit:4;stroke-opacity:1;stroke-dasharray:none;stroke-dashoffset:0" />
      <g
         id="g11606"
         transform="translate(14.612855,-758.24481)">
        <path
           inkscape:connector-curvature="0"
           id="path11608"
           d="m 1518.5035,2561.2743 c 13.5544,-1.2919 22.6726,7.326 34.5883,11.659 11.4659,4.1694 26.4514,4.5059 33.811,15.5453 18.6531,27.9796 -11.136,78.1094 -27.9815,98.3239 -6.7752,8.1303 -7.8281,21.8467 -13.9908,31.0906 -13.172,19.758 -38.1841,32.0002 -47.0245,55.5744 -15.5582,41.4887 0.8814,88.5422 -15.9339,130.5804 -26.1548,65.387 -145.4053,70.0638 -195.0933,30.3134 -20.0426,-16.0341 -24.4448,-35.0023 -33.0338,-57.9063 -4.4936,-11.9828 -11.8043,-22.8955 -15.5453,-35.3655 -4.887,-16.2901 -3.8436,-34.7678 -5.0522,-51.6881 -2.6301,-36.8208 -2.7624,-67.5799 24.0952,-94.4376 26.7308,-26.7308 96.6007,0.5574 129.4145,-32.2565 12.5184,-12.5183 25.3545,-23.8466 35.3656,-38.8632 9.8828,-14.8243 11.8503,-41.3098 27.2042,-50.5222 22.7264,-13.6358 43.932,-8.892 69.1765,-12.0476 z"
           style="fill:#e2efc7;fill-opacity:1;stroke:#000000;stroke-width:1.99999988;stroke-linecap:butt;stroke-linejoin:miter;stroke-miterlimit:4;stroke-opacity:1;stroke-dasharray:none" />
        <path
           inkscape:connector-curvature="0"
           id="path11612"
           d="m 1314.8603,2864.4075 c 8.9872,20.3665 50.881,35.2279 70.731,23.3179 8.9152,-5.3491 14.7717,-10.6939 20.2089,-20.2089 10.716,-18.753 20.4869,-95.5893 2.3318,-109.2056 -12.5266,-9.395 -38.2425,-0.052 -53.2426,-5.0523 -10.2877,-3.4292 -20.1576,-9.12 -30.3133,-11.6589 -72.6206,-18.1552 -41.9728,57.2568 -31.8679,90.9399 5.1544,17.1813 11.0805,20.7963 22.1521,31.8679 z"
           style="fill:#eff4c6;fill-opacity:1;stroke:#000000;stroke-width:1.99999988;stroke-linecap:butt;stroke-linejoin:miter;stroke-miterlimit:4;stroke-opacity:1;stroke-dasharray:none" />
        <path
           inkscape:connector-curvature="0"
           id="path11616"
           d="m 1347.3111,2803.6837 c 3.9139,-4.4855 25.4742,-7.1201 29.9246,-3.0119 7.7353,7.1403 -11.1228,19.9532 -13.6021,25.0668 -1.697,3.5 1.5169,11.1299 -1.7488,13.5049 -4.358,3.1694 -14.2446,4.1189 -19.1402,1.5545 -1.6325,-0.8551 -1.4252,-3.8155 -3.109,-4.8579 -5.8729,-3.6356 -16.5721,-4.2734 -14.8652,-14.0879 1.2361,-7.1075 11.0309,-10.5404 16.7112,-13.2135 2.1535,-1.0134 3.8025,-3.6882 5.8295,-4.955 z"
           style="fill:#fdf9c5;fill-opacity:1;stroke:#000000;stroke-width:1.99999988;stroke-linecap:butt;stroke-linejoin:miter;stroke-miterlimit:4;stroke-opacity:1;stroke-dasharray:none" />
        <path
           inkscape:connector-curvature="0"
           id="path11622"
           d="m 1487.0243,2617.2374 c 12.042,-6.0413 26.9193,-6.9436 39.2519,-0.7773 22.2057,11.1029 -7.4934,27.091 -12.8249,34.1996 -8.2575,11.0101 -9.4859,26.1621 -27.5929,22.5407 -12.919,-2.5838 -8.5753,-55.963 1.1659,-55.963 z"
           style="fill:#f0f4c6;fill-opacity:1;stroke:#000000;stroke-width:1.99999988;stroke-linecap:butt;stroke-linejoin:miter;stroke-miterlimit:4;stroke-opacity:1;stroke-dasharray:none" />
      </g>
    </g>
    <g
       id="g11574"
       transform="translate(698.52546,-11.643311)">
      <rect
         style="fill:#d6eac8;fill-opacity:1;stroke:#000000;stroke-width:2;stroke-linecap:square;stroke-linejoin:miter;stroke-miterlimit:4;stroke-opacity:1;stroke-dasharray:none;stroke-dashoffset:0"
         id="rect11328"
         width="448"
         height="448"
         x="1203.0928"
         y="1778.1932" />
      <g
         transform="translate(14.612855,-758.24481)"
         id="g11518">
        <path
           style="fill:#e2efc7;fill-opacity:1;stroke:#000000;stroke-width:1.99999988;stroke-linecap:butt;stroke-linejoin:miter;stroke-miterlimit:4;stroke-opacity:1;stroke-dasharray:none"
           d="m 1518.5035,2561.2743 c 13.5544,-1.2919 22.6726,7.326 34.5883,11.659 11.4659,4.1694 26.4514,4.5059 33.811,15.5453 18.6531,27.9796 -11.136,78.1094 -27.9815,98.3239 -6.7752,8.1303 -7.8281,21.8467 -13.9908,31.0906 -13.172,19.758 -38.1841,32.0002 -47.0245,55.5744 -15.5582,41.4887 0.8814,88.5422 -15.9339,130.5804 -26.1548,65.387 -145.4053,70.0638 -195.0933,30.3134 -20.0426,-16.0341 -24.4448,-35.0023 -33.0338,-57.9063 -4.4936,-11.9828 -11.8043,-22.8955 -15.5453,-35.3655 -4.887,-16.2901 -3.8436,-34.7678 -5.0522,-51.6881 -2.6301,-36.8208 -2.7624,-67.5799 24.0952,-94.4376 26.7308,-26.7308 96.6007,0.5574 129.4145,-32.2565 12.5184,-12.5183 25.3545,-23.8466 35.3656,-38.8632 9.8828,-14.8243 11.8503,-41.3098 27.2042,-50.5222 22.7264,-13.6358 43.932,-8.892 69.1765,-12.0476 z"
           id="path11330"
           inkscape:connector-curvature="0" />
        <path
           style="fill:#eff4c6;fill-opacity:1;stroke:#000000;stroke-width:1.99999988;stroke-linecap:butt;stroke-linejoin:miter;stroke-miterlimit:4;stroke-opacity:1;stroke-dasharray:none"
           d="m 1403.857,2724.1112 c 35.7918,10.7908 36.5315,57.3163 36.5315,88.6082 0,18.3656 2.6291,39.0224 -0.3887,57.1289 -12.7551,76.5309 -108.0247,67.3804 -148.4575,20.2089 -20.9934,-24.4923 -46.1817,-136.0868 -22.152,-160.1165 14.6121,-14.612 44.1089,-8.7443 61.7925,-6.2181 23.2266,3.3181 50.3499,-5.9898 72.6742,0.3886 z"
           id="path11332"
           inkscape:connector-curvature="0" />
        <path
           style="fill:#fdf9c5;fill-opacity:1;stroke:#000000;stroke-width:1.99999988;stroke-linecap:butt;stroke-linejoin:miter;stroke-miterlimit:4;stroke-opacity:1;stroke-dasharray:none"
           d="m 1314.8603,2864.4075 c 8.9872,20.3665 50.881,35.2279 70.731,23.3179 8.9152,-5.3491 14.7717,-10.6939 20.2089,-20.2089 10.716,-18.753 20.4869,-95.5893 2.3318,-109.2056 -12.5266,-9.395 -38.2425,-0.052 -53.2426,-5.0523 -10.2877,-3.4292 -20.1576,-9.12 -30.3133,-11.6589 -72.6206,-18.1552 -41.9728,57.2568 -31.8679,90.9399 5.1544,17.1813 11.0805,20.7963 22.1521,31.8679 z"
           id="path11334"
           inkscape:connector-curvature="0" />
        <path
           style="fill:#faeec1;fill-opacity:1;stroke:#000000;stroke-width:1.99999988;stroke-linecap:butt;stroke-linejoin:miter;stroke-miterlimit:4;stroke-opacity:1;stroke-dasharray:none"
           d="m 1348.0883,2783.9606 c 9.431,-1.65 42.2216,-13.1036 48.5791,-0.3886 8.7267,17.4534 -9.3572,30.1789 -13.9908,45.4699 -2.5698,8.4803 1.353,27.5253 -2.7204,33.2281 -3.204,4.4856 -10.8725,5.6344 -15.934,6.0238 -25.1366,1.9336 -21.5233,-8.6658 -37.3086,-22.3464 -6.1938,-5.3679 -14.0754,-5.2945 -19.4317,-12.4362 -4.6574,-6.21 -2.6806,-16.462 -0.7772,-23.1236 2.3905,-8.3669 1.3897,-17.4915 5.8295,-25.2611 4.7684,-8.3448 27.8936,-2.1485 35.7541,-1.1659 z"
           id="path11336"
           inkscape:connector-curvature="0" />
        <path
           style="fill:#f6e4bd;fill-opacity:1;stroke:#000000;stroke-width:1.99999988;stroke-linecap:butt;stroke-linejoin:miter;stroke-miterlimit:4;stroke-opacity:1;stroke-dasharray:none"
           d="m 1347.3111,2803.6837 c 3.9139,-4.4855 25.4742,-7.1201 29.9246,-3.0119 7.7353,7.1403 -11.1228,19.9532 -13.6021,25.0668 -1.697,3.5 1.5169,11.1299 -1.7488,13.5049 -4.358,3.1694 -14.2446,4.1189 -19.1402,1.5545 -1.6325,-0.8551 -1.4252,-3.8155 -3.109,-4.8579 -5.8729,-3.6356 -16.5721,-4.2734 -14.8652,-14.0879 1.2361,-7.1075 11.0309,-10.5404 16.7112,-13.2135 2.1535,-1.0134 3.8025,-3.6882 5.8295,-4.955 z"
           id="path11338"
           inkscape:connector-curvature="0" />
        <path
           style="fill:#f3dab9;fill-opacity:1;stroke:#000000;stroke-width:1.99999988;stroke-linecap:butt;stroke-linejoin:miter;stroke-miterlimit:4;stroke-opacity:1;stroke-dasharray:none"
           d="m 1346.048,2814.3711 c -10.0259,3.1031 -4.4114,17.3992 5.538,12.922 3.5662,-1.6048 3.0765,-5.3407 4.8579,-8.1613 2.4646,-3.9022 4.8417,-9.6186 -2.0403,-9.6186 -4.197,0 -4.5354,5.7068 -8.3556,4.8579 z"
           id="path11340"
           inkscape:connector-curvature="0" />
        <path
           style="fill:#f0f4c6;fill-opacity:1;stroke:#000000;stroke-width:1.99999988;stroke-linecap:butt;stroke-linejoin:miter;stroke-miterlimit:4;stroke-opacity:1;stroke-dasharray:none"
           d="m 1462.1519,2596.2512 c -3.8011,21.5099 -20.5235,44.3472 -10.8817,66.8448 3.1273,7.2971 9.7769,12.5052 12.8248,19.8202 3.3678,8.0827 9.0886,17.8373 18.6544,19.4316 27.8593,4.6433 34.181,-14.7494 50.1335,-30.7019 15.4028,-15.4028 30.818,-29.5421 28.3702,-54.0199 -2.6251,-26.2511 -33.8565,-23.6379 -51.6881,-27.2042 -18.3246,-3.665 -39.3342,-15.7144 -47.4131,5.8294 z"
           id="path11342"
           inkscape:connector-curvature="0" />
        <path
           style="fill:#fdf9c5;fill-opacity:1;stroke:#000000;stroke-width:1.99999988;stroke-linecap:butt;stroke-linejoin:miter;stroke-miterlimit:4;stroke-opacity:1;stroke-dasharray:none"
           d="m 1487.0243,2617.2374 c 12.042,-6.0413 26.9193,-6.9436 39.2519,-0.7773 22.2057,11.1029 -7.4934,27.091 -12.8249,34.1996 -8.2575,11.0101 -9.4859,26.1621 -27.5929,22.5407 -12.919,-2.5838 -8.5753,-55.963 1.1659,-55.963 z"
           id="path11344"
           inkscape:connector-curvature="0" />
        <path
           style="fill:#faeec1;fill-opacity:1;stroke:#000000;stroke-width:1.99999988;stroke-linecap:butt;stroke-linejoin:miter;stroke-miterlimit:4;stroke-opacity:1;stroke-dasharray:none"
           d="m 1492.4652,2630.8395 c -18.525,37.6281 31.3785,7.8677 16.3225,-1.1659 -1.7525,-1.0515 -5.9589,-3.433 -8.1612,-2.3318 -3.1983,1.5991 -4.8074,3.0186 -8.1613,3.4977 z"
           id="path11346"
           inkscape:connector-curvature="0" />
      </g>
    </g>
    <text
       xml:space="preserve"
       style="font-size:25px;font-style:normal;font-weight:normal;text-align:start;line-height:125%;letter-spacing:0px;word-spacing:0px;text-anchor:start;fill:#000000;fill-opacity:1;stroke:none;font-family:Sans;-inkscape-font-specification:Sans"
       x="2395.7002"
       y="2288.4023"
       id="text7368"
       sodipodi:linespacing="125%"><tspan
         sodipodi:role="line"
         x="2395.7002"
         y="2288.4023"
         id="tspan7372">swap</tspan><tspan
         sodipodi:role="line"
         x="2395.7002"
         y="2319.6523"
         id="tspan11197">temperatures</tspan></text>
    <g
       id="g11203"
       transform="translate(43.838565,0)">
      <path
         inkscape:transform-center-x="-0.052045902"
         transform="matrix(1.7072055,-0.00326918,-0.01351562,-2.6267033,-915.89517,7845.2714)"
         inkscape:transform-center-y="-5.0802504"
         d="m 2181.0834,2171.8708 -6.715,0 -6.715,0 3.3575,-5.8153 3.3575,-5.8154 3.3575,5.8154 z"
         inkscape:randomized="0"
         inkscape:rounded="0"
         inkscape:flatsided="false"
         sodipodi:arg2="1.5707963"
         sodipodi:arg1="0.52359878"
         sodipodi:r2="3.8768923"
         sodipodi:r1="7.7537847"
         sodipodi:cy="2167.9939"
         sodipodi:cx="2174.3684"
         sodipodi:sides="3"
         id="path10821"
         style="fill:#664366;fill-opacity:1;stroke:none"
         sodipodi:type="star" />
      <path
         sodipodi:type="arc"
         style="fill:none;stroke:url(#linearGradient11201);stroke-width:1.63771713;stroke-linecap:round;stroke-linejoin:round;stroke-miterlimit:4;stroke-opacity:1;stroke-dasharray:1.63771713, 3.27543426;stroke-dashoffset:0"
         id="path10823"
         sodipodi:cx="2289"
         sodipodi:cy="2213.3623"
         sodipodi:rx="279"
         sodipodi:ry="137"
         d="m 2502.7264,2301.4242 c -99.0455,57.9612 -275.0263,65.5214 -393.0641,16.8862 -12.442,-5.1265 -23.9486,-10.7767 -34.3887,-16.8862"
         sodipodi:start="0.6981317"
         sodipodi:end="2.443461"
         sodipodi:open="true"
         transform="matrix(0,-1.5270474,2.1974157,0,-2397.6135,5643.9785)" />
    </g>
    <g
       id="g11108"
       transform="translate(65.288304,137.82112)">
      <path
         sodipodi:type="star"
         style="fill:#000000;stroke:#000000;stroke-width:0.86535668;stroke-linecap:square;stroke-linejoin:miter;stroke-miterlimit:4;stroke-opacity:1;stroke-dasharray:none;stroke-dashoffset:0"
         id="path11097"
         sodipodi:sides="3"
         sodipodi:cx="2174.3684"
         sodipodi:cy="2167.9939"
         sodipodi:r1="7.7537847"
         sodipodi:r2="3.8768923"
         sodipodi:arg1="0.52359878"
         sodipodi:arg2="1.5707963"
         inkscape:flatsided="false"
         inkscape:rounded="0"
         inkscape:randomized="0"
         d="m 2181.0834,2171.8708 -6.715,0 -6.715,0 3.3575,-5.8153 3.3575,-5.8154 3.3575,5.8154 z"
         inkscape:transform-center-y="6.1807848"
         transform="matrix(-2.0732862,7.4155225e-4,0.00916427,-3.1899777,6794.8912,9129.3343)"
         inkscape:transform-center-x="-0.035043901" />
      <path
         inkscape:connector-curvature="0"
         id="path11106"
         d="m 2306.7068,2122.9971 0,81.617"
         style="fill:none;stroke:#000000;stroke-width:10;stroke-linecap:square;stroke-linejoin:miter;stroke-miterlimit:4;stroke-opacity:1;stroke-dasharray:none" />
    </g>
    <text
       xml:space="preserve"
       style="font-size:25px;font-style:normal;font-weight:normal;text-align:center;line-height:125%;letter-spacing:0px;word-spacing:0px;text-anchor:middle;fill:#000000;fill-opacity:1;stroke:none;font-family:Sans"
       x="2125.6243"
       y="1717.941"
       id="text8837"
       sodipodi:linespacing="125%"><tspan
         sodipodi:role="line"
         id="tspan8839"
         x="2125.6243"
         y="1717.941"><tspan
   style="font-weight:bold;text-align:center;text-anchor:middle;fill:#2c5aa0;-inkscape-font-specification:Sans Bold"
   id="tspan8853">cold</tspan> chain</tspan><tspan
         sodipodi:role="line"
         x="2125.6243"
         y="1749.191"
         id="tspan10859">(normal landscape)</tspan></text>
    <g
       id="g9256">
      <path
         style="fill:none;stroke:#2c5aa0;stroke-width:3;stroke-linecap:round;stroke-linejoin:round;stroke-miterlimit:4;stroke-opacity:1;stroke-dasharray:none;marker-start:none;marker-end:none"
         d="m 2042.9073,2072.1577 -97.6289,-92.609 87.0697,-36.6974 -56.2577,112.3425 68.0286,-52.9689 -114.0734,2.0772 152.5018,43.6214 -26.8306,-109.7459 -38.7746,171.716 -22.5031,-118.9202 -42.2366,75.4719"
         id="path3862"
         inkscape:connector-curvature="0"
         transform="translate(55.19647,14.097023)" />
      <path
         sodipodi:type="star"
         style="fill:#2c5aa0;fill-opacity:1;stroke:none"
         id="path8857"
         sodipodi:sides="3"
         sodipodi:cx="2174.3684"
         sodipodi:cy="2167.9939"
         sodipodi:r1="7.7537847"
         sodipodi:r2="3.8768923"
         sodipodi:arg1="0.52359878"
         sodipodi:arg2="1.5707963"
         inkscape:flatsided="false"
         inkscape:rounded="0"
         inkscape:randomized="0"
         d="m 2181.0834,2171.8708 -6.715,0 -6.715,0 3.3575,-5.8153 3.3575,-5.8154 3.3575,5.8154 z"
         inkscape:transform-center-y="1.0798909"
         transform="matrix(-0.95336846,-0.52542621,0.80858036,-1.4671423,2329.9427,6399.7577)"
         inkscape:transform-center-x="-1.6335439" />
      <path
         transform="translate(1.2582043,0.13980097)"
         d="m 2105.5351,2086.4663 c 0,3.9377 -3.1921,7.1298 -7.1298,7.1298 -3.9377,0 -7.1299,-3.1921 -7.1299,-7.1298 0,-3.9377 3.1922,-7.1298 7.1299,-7.1298 3.9377,0 7.1298,3.1921 7.1298,7.1298 z"
         sodipodi:ry="7.1298246"
         sodipodi:rx="7.1298246"
         sodipodi:cy="2086.4663"
         sodipodi:cx="2098.4053"
         id="path8873"
         style="fill:#2c5aa0;fill-opacity:1;stroke:none"
         sodipodi:type="arc" />
    </g>
    <text
       xml:space="preserve"
       style="font-size:25px;font-style:normal;font-weight:normal;text-align:center;line-height:125%;letter-spacing:0px;word-spacing:0px;text-anchor:middle;fill:#000000;fill-opacity:1;stroke:none;font-family:Sans"
       x="2618.9075"
       y="1717.941"
       id="text8841"
       sodipodi:linespacing="125%"><tspan
         sodipodi:role="line"
         id="tspan8843"
         x="2618.9075"
         y="1717.941"><tspan
   style="font-weight:bold;text-align:center;text-anchor:middle;fill:#a02c2c;-inkscape-font-specification:Sans Bold"
   id="tspan9278">heated</tspan> chain</tspan><tspan
         sodipodi:role="line"
         x="2618.9075"
         y="1749.191"
         id="tspan10861">(flattened landscape)</tspan></text>
    <path
       inkscape:connector-curvature="0"
       id="path5430"
       d="m 2500.4797,2001.4592 24,72 10,-98 94,133 -85,-67 120,12 -59,-46 67,-24 -85,-68 55,98 27,-81 59,-2 -3,-82 35,38 -104,-12 -25,30 77,1 -16,-84"
       style="fill:none;stroke:#a02c2c;stroke-width:3;stroke-linecap:butt;stroke-linejoin:miter;stroke-miterlimit:4;stroke-opacity:1;stroke-dasharray:none;marker-start:none;marker-end:none" />
    <path
       sodipodi:type="star"
       style="fill:#a02c2c;fill-opacity:1;stroke:none"
       id="path9251"
       sodipodi:sides="3"
       sodipodi:cx="2174.3684"
       sodipodi:cy="2167.9939"
       sodipodi:r1="7.7537847"
       sodipodi:r2="3.8768923"
       sodipodi:arg1="0.52359878"
       sodipodi:arg2="1.5707963"
       inkscape:flatsided="false"
       inkscape:rounded="0"
       inkscape:randomized="0"
       d="m 2181.0834,2171.8708 -6.715,0 -6.715,0 3.3575,-5.8153 3.3575,-5.8154 3.3575,5.8154 z"
       inkscape:transform-center-y="-2.5841439"
       transform="matrix(1.07297,-0.18362871,0.28258692,1.6511976,-254.3227,-1359.5406)"
       inkscape:transform-center-x="-1.0955343" />
    <path
       transform="translate(401.15126,-87.635333)"
       d="m 2105.5351,2086.4663 c 0,3.9377 -3.1921,7.1298 -7.1298,7.1298 -3.9377,0 -7.1299,-3.1921 -7.1299,-7.1298 0,-3.9377 3.1922,-7.1298 7.1299,-7.1298 3.9377,0 7.1298,3.1921 7.1298,7.1298 z"
       sodipodi:ry="7.1298246"
       sodipodi:rx="7.1298246"
       sodipodi:cy="2086.4663"
       sodipodi:cx="2098.4053"
       id="path9253"
       style="fill:#a02c2c;fill-opacity:1;stroke:none"
       sodipodi:type="arc" />
    <g
       id="g11703"
       transform="translate(-3.2473011,4.8709517)">
      <path
         inkscape:connector-curvature="0"
         id="path6200"
         d="m 2017.1965,2737.5563 5,-68 -54,-12 115,-68 -20,110 84,-8 -111,-56 126,20 -66,-56 34,-51 10,61 87,-27 -104,1 29,-50 40,79 c 0,0 -26,-119 -21,-117 5,2 48,59 48,59 l 2,-92 -17,51 62,-6"
         style="fill:none;stroke:#a02c2c;stroke-width:3;stroke-linecap:butt;stroke-linejoin:miter;stroke-miterlimit:4;stroke-opacity:1;stroke-dasharray:none;marker-start:none;marker-end:none" />
      <path
         sodipodi:type="star"
         style="fill:#a02c2c;fill-opacity:1;stroke:none"
         id="path9662"
         sodipodi:sides="3"
         sodipodi:cx="2174.3684"
         sodipodi:cy="2167.9939"
         sodipodi:r1="7.7537847"
         sodipodi:r2="3.8768923"
         sodipodi:arg1="0.52359878"
         sodipodi:arg2="1.5707963"
         inkscape:flatsided="false"
         inkscape:rounded="0"
         inkscape:randomized="0"
         d="m 2181.0834,2171.8708 -6.715,0 -6.715,0 3.3575,-5.8153 3.3575,-5.8154 3.3575,5.8154 z"
         inkscape:transform-center-y="0.61942722"
         transform="matrix(0.10380442,1.0836092,-1.6675702,0.15974504,5653.4143,-194.6678)"
         inkscape:transform-center-x="-2.8838955" />
      <path
         transform="translate(-81.334112,651.60378)"
         d="m 2105.5351,2086.4663 c 0,3.9377 -3.1921,7.1298 -7.1298,7.1298 -3.9377,0 -7.1299,-3.1921 -7.1299,-7.1298 0,-3.9377 3.1922,-7.1298 7.1299,-7.1298 3.9377,0 7.1298,3.1921 7.1298,7.1298 z"
         sodipodi:ry="7.1298246"
         sodipodi:rx="7.1298246"
         sodipodi:cy="2086.4663"
         sodipodi:cx="2098.4053"
         id="path9664"
         style="fill:#a02c2c;fill-opacity:1;stroke:none"
         sodipodi:type="arc" />
    </g>
    <text
       sodipodi:linespacing="125%"
       id="text10871"
       y="2371.5305"
       x="2125.6243"
       style="font-size:25px;font-style:normal;font-weight:normal;text-align:center;line-height:125%;letter-spacing:0px;word-spacing:0px;text-anchor:middle;fill:#000000;fill-opacity:1;stroke:none;font-family:Sans"
       xml:space="preserve"><tspan
         y="2371.5305"
         x="2125.6243"
         id="tspan10873"
         sodipodi:role="line"><tspan
   id="tspan10875"
   style="font-weight:bold;text-align:center;text-anchor:middle;fill:#a02c2c;-inkscape-font-specification:Sans Bold">heated</tspan> chain</tspan><tspan
         id="tspan10877"
         y="2402.7805"
         x="2125.6243"
         sodipodi:role="line">(flattened landscape)</tspan></text>
    <g
       id="g11740"
       transform="translate(43.838565,0)">
      <path
         inkscape:connector-curvature="0"
         id="path5830"
         d="m 2651.6411,2483.5563 33,-23 30,58 -61,18 60,-48 -88,33 31,-69 37,86 -79,-48 33,73"
         style="fill:none;stroke:#2c5aa0;stroke-width:3;stroke-linecap:butt;stroke-linejoin:miter;stroke-miterlimit:4;stroke-opacity:1;stroke-dasharray:none;marker-start:none;marker-end:none" />
      <path
         sodipodi:type="star"
         style="fill:#2c5aa0;fill-opacity:1;stroke:none"
         id="path9282"
         sodipodi:sides="3"
         sodipodi:cx="2174.3684"
         sodipodi:cy="2167.9939"
         sodipodi:r1="7.7537847"
         sodipodi:r2="3.8768923"
         sodipodi:arg1="0.52359878"
         sodipodi:arg2="1.5707963"
         inkscape:flatsided="false"
         inkscape:rounded="0"
         inkscape:randomized="0"
         d="m 2181.0834,2171.8708 -6.715,0 -6.715,0 3.3575,-5.8153 3.3575,-5.8154 3.3575,5.8154 z"
         inkscape:transform-center-y="1.4372229"
         transform="matrix(-0.99037131,0.45182818,-0.69532009,-1.5240862,6307.4053,4882.6635)"
         inkscape:transform-center-x="1.9771321" />
      <path
         transform="translate(555.14477,395.49015)"
         d="m 2105.5351,2086.4663 c 0,3.9377 -3.1921,7.1298 -7.1298,7.1298 -3.9377,0 -7.1299,-3.1921 -7.1299,-7.1298 0,-3.9377 3.1922,-7.1298 7.1299,-7.1298 3.9377,0 7.1298,3.1921 7.1298,7.1298 z"
         sodipodi:ry="7.1298246"
         sodipodi:rx="7.1298246"
         sodipodi:cy="2086.4663"
         sodipodi:cx="2098.4053"
         id="path9284"
         style="fill:#2c5aa0;fill-opacity:1;stroke:none"
         sodipodi:type="arc" />
    </g>
    <text
       sodipodi:linespacing="125%"
       id="text10863"
       y="2371.5305"
       x="2618.9075"
       style="font-size:25px;font-style:normal;font-weight:normal;text-align:center;line-height:125%;letter-spacing:0px;word-spacing:0px;text-anchor:middle;fill:#000000;fill-opacity:1;stroke:none;font-family:Sans"
       xml:space="preserve"><tspan
         y="2371.5305"
         x="2618.9075"
         id="tspan10865"
         sodipodi:role="line"><tspan
   id="tspan10867"
   style="font-weight:bold;text-align:center;text-anchor:middle;fill:#2c5aa0;-inkscape-font-specification:Sans Bold">cold</tspan> chain</tspan><tspan
         id="tspan10869"
         y="2402.7805"
         x="2618.9075"
         sodipodi:role="line">(normal landscape)</tspan></text>
    <g
       id="g11219"
       transform="translate(151.1141,5.3969319)">
      <path
         sodipodi:type="star"
         style="fill:#664366;fill-opacity:1;stroke:none"
         id="path11209"
         sodipodi:sides="3"
         sodipodi:cx="2174.3684"
         sodipodi:cy="2167.9939"
         sodipodi:r1="7.7537847"
         sodipodi:r2="3.8768923"
         sodipodi:arg1="0.52359878"
         sodipodi:arg2="1.5707963"
         inkscape:flatsided="false"
         inkscape:rounded="0"
         inkscape:randomized="0"
         d="m 2181.0834,2171.8708 -6.715,0 -6.715,0 3.3575,-5.8153 3.3575,-5.8154 3.3575,5.8154 z"
         inkscape:transform-center-y="-5.0802504"
         transform="matrix(-1.7072055,-0.00326918,0.01351562,-2.6267033,5425.3524,8096.2287)"
         inkscape:transform-center-x="0.052086874" />
      <path
         transform="matrix(0,1.5270474,-2.1974157,0,6907.0708,-1095.8872)"
         sodipodi:open="true"
         sodipodi:end="2.443461"
         sodipodi:start="0.6981317"
         d="m 2502.7264,2301.4242 c -99.0455,57.9612 -275.0263,65.5214 -393.0641,16.8862 -12.442,-5.1265 -23.9486,-10.7767 -34.3887,-16.8862"
         sodipodi:ry="137"
         sodipodi:rx="279"
         sodipodi:cy="2213.3623"
         sodipodi:cx="2289"
         id="path11211"
         style="fill:none;stroke:url(#linearGradient11223);stroke-width:1.63771713;stroke-linecap:round;stroke-linejoin:round;stroke-miterlimit:4;stroke-opacity:1;stroke-dasharray:1.63771713, 3.27543426;stroke-dashoffset:0"
         sodipodi:type="arc" />
    </g>
    <text
       xml:space="preserve"
       style="font-size:25px;font-style:normal;font-weight:bold;line-height:125%;letter-spacing:0px;word-spacing:0px;fill:#000000;fill-opacity:1;stroke:none;font-family:Sans;-inkscape-font-specification:Sans Bold"
       x="1913.2247"
       y="1798.5632"
       id="text3251"
       sodipodi:linespacing="125%"><tspan
         sodipodi:role="line"
         id="tspan3253"
         x="1913.2247"
         y="1798.5632">(a)</tspan></text>
    <text
       xml:space="preserve"
       style="font-size:25px;font-style:normal;font-weight:bold;line-height:125%;letter-spacing:0px;word-spacing:0px;fill:#000000;fill-opacity:1;stroke:none;font-family:Sans;-inkscape-font-specification:Sans Bold"
       x="2407.0061"
       y="1798.5632"
       id="text3255"
       sodipodi:linespacing="125%"><tspan
         sodipodi:role="line"
         id="tspan3257"
         x="2407.0061"
         y="1798.5632">(b)</tspan></text>
    <text
       xml:space="preserve"
       style="font-size:25px;font-style:normal;font-weight:bold;line-height:125%;letter-spacing:0px;word-spacing:0px;fill:#000000;fill-opacity:1;stroke:none;font-family:Sans;-inkscape-font-specification:Sans Bold"
       x="1913.2247"
       y="2455.5552"
       id="text3259"
       sodipodi:linespacing="125%"><tspan
         sodipodi:role="line"
         id="tspan3261"
         x="1913.2247"
         y="2455.5552">(c)</tspan></text>
    <text
       xml:space="preserve"
       style="font-size:25px;font-style:normal;font-weight:bold;line-height:125%;letter-spacing:0px;word-spacing:0px;fill:#000000;fill-opacity:1;stroke:none;font-family:Sans;-inkscape-font-specification:Sans Bold"
       x="2407.0061"
       y="2455.5552"
       id="text3263"
       sodipodi:linespacing="125%"><tspan
         sodipodi:role="line"
         id="tspan3265"
         x="2407.0061"
         y="2455.5552">(d)</tspan></text>
  </g>
</svg>
